<svg xmlns="http://www.w3.org/2000/svg" viewBox="0 0 436.79 507.48"><defs><style>.cls-1{fill:#fff;}</style></defs><g id="Calque_1" data-name="Calque 1"><path class="cls-1" d="M222,486.59c4.35-10.83,8.63-21.33,12.79-31.88,7.18-18.22,14.48-36.4,20.55-55a28.5,28.5,0,0,0,.86-3c.61-2.94-.76-4.79-3.76-5.13-1.54-.18-3.08-.26-4.62-.47a1.23,1.23,0,0,1-.89-.66c-.2-.61.36-1,.83-1.07a13.57,13.57,0,0,1,2.77-.22c8.67.21,17.34.64,26,0a12.84,12.84,0,0,1,1.86,0,1.36,1.36,0,0,1,1.36,1c.1.8-.7.9-1.29,1a19.51,19.51,0,0,1-2.16.22,10.69,10.69,0,0,0-9.52,6.28c-5.74,11.16-9.95,23-14.85,34.49-10,23.58-19.42,47.42-30.3,70.63-.84,1.78-1.12,4.65-3.44,4.63s-2.7-2.86-3.44-4.69q-13.39-33.19-26.66-66.43c-4.64-11.54-9.41-23-13.94-34.59-2.62-6.73-7.25-10.29-14.51-10.38a5.37,5.37,0,0,1-2.11-.37c-1-.43-.85-1.17.05-1.49a8,8,0,0,1,2.72-.37c10.85.19,21.69.55,32.54,0,1.27-.07,3.4-.35,3.45,1.07.06,1.65-2.08,1.09-3.28,1.19-5.92.48-7,2.26-4.62,8.47q7,18.42,14,36.79,9.26,24.12,18.58,48.2A13.34,13.34,0,0,0,222,486.59Z"/><path class="cls-1" d="M16.82,319.15l-.57-1.95c.22-1.05.45-2.1.84-3.95C17.5,315.82,17.56,317.51,16.82,319.15Z"/><path class="cls-1" d="M433,317.19l-.57,2c-.74-1.63-.67-3.32-.27-5.91C432.58,315.1,432.81,316.15,433,317.19Z"/><path class="cls-1" d="M436.07,350.48c-.47,8.63-.88,17.32-3.62,25.65-.72,2.18-.83,2.33-2.56,4.23-1.16-1.37-1.15-3-1.14-4.6.11-14.57.1-29.15-1.25-43.68-.4-4.31-.88-8.62-1.33-12.92-.06-.73-.8-1.65.57-2,1.46,5.47,1.56,11.32,4.43,17,1.68-3.1,1-5.85.59-8.33a425.84,425.84,0,0,0-9.87-48.64,26.57,26.57,0,0,0-1.12-2.84c-.36-.9-.91-1.85-1.88-1.84-1.33,0-.56,1.26-.77,1.94-.37,1.19-1.05,1.11-1.85.5a3.27,3.27,0,0,1-1.06-1.1,36.52,36.52,0,0,1-3.92-13.95c3.51,1.22,6.7,2.22,9.79,3.45,2.61,1,3.18-.11,2.91-2.35a18.71,18.71,0,0,0-4.74-10.19c-1.73-2-4.43-1.61-6.68-1.85-3.23-.35-6-2.25-9.24-2.32a2.62,2.62,0,0,1-1.54-1,35.65,35.65,0,0,1-6.91-13c1.65,1,3.35,1.84,4.93,2.89a51.44,51.44,0,0,0,15.91,7.12c1.67.42,2.14-.11,1.93-1.59-.6-4.17-1.82-8-5.68-10.43-5.55-3.52-11.34-6.68-16.46-10.85-1.66-1.35-3.44-2.63-4.4-4.79,1.71-.93,3.07.19,4.44.49,3.61.81,5.05-.5,4.42-4.17-.74-4.3-3.22-8.05-4-12.25-2-10.23-8.38-17.44-15.76-24a25.89,25.89,0,0,0-7.86-4.83c-1.86-.72-3.85-1.65-5.78.13-.89.82-2,.41-2.89-.13-4.27-2.52-9-2.78-13.76-2.67-5.46.13-10.91.65-16.37,1.06a9.91,9.91,0,0,0-2.21.74c.55-1,1.51-1.77,1.24-3.07.26.07.5.24.76.18a.75.75,0,0,0,.33-.2c6-5.92,12.89-10.77,18.73-16.83l3.09.13c5.77,5,13.17,3.13,15.69-4,.82-2.3,1-4.81,2.4-7.2a103,103,0,0,0,14.86,10.38c1.41.84,2.57,2.71,4.83,1.49.76-.4,1.1,1,1.54,1.65,7.77,11.27,12.8,23.83,17.36,36.63,5.1,14.29,9.95,28.66,13.73,43.36.48,1.84,1.22,3.72.84,5.68-1.22.25-2.07-.42-3-.85s-1.75-.84-2.58-.07a2.46,2.46,0,0,0-.35,2.62,7,7,0,0,0,2.28,3.92c1,.74,2,1.26,2.87-.14,1.32-2.07,2.14-.86,2.68.51a30.72,30.72,0,0,1,2,9.94c0,.66.37,1.53-.43,2s-1.35-.24-1.9-.68-1.08-.93-1.83-1.59c-.82,2.23-2.44,4.35-.24,6.27,1.67,1.46,3.17.16,4.45-1.67,1.92,4.47,2.45,9,3,13.4A452.58,452.58,0,0,1,436.07,350.48Z"/><path class="cls-1" d="M381.56,213.86c-4.62-3.35-9.22-7.11-9-13.1a72.85,72.85,0,0,0-2.61-22.85c-.07-.24.11-.56.22-1.06,2.41,1.3,3.1,3.59,4,5.74,2.72,6.93,3.54,14.29,5,21.52C379.77,207.39,380.73,210.61,381.56,213.86Z"/><path class="cls-1" d="M67.1,176.44c-.91,3.91-1.62,7-2.32,10.07a36.05,36.05,0,0,0-.48,11.68c.71,7.31-3.95,11.63-8.86,15.83.32-3.52,1.66-6.72,2.25-10.12,1.27-7.26,2.25-14.6,5-21.51C63.46,180.32,64.24,178.18,67.1,176.44Z"/><path class="cls-1" d="M436.55,431.44c-1.43-5.9-1.44-11.86-1.13-17.87a31.65,31.65,0,0,0-.47-9.26,10.71,10.71,0,0,0-16.24-6.68c-3.35,2.08-6.2,4.78-9.31,7.14s-6,1.49-7.54-2.15a7.29,7.29,0,0,1-.32-4.57,32.43,32.43,0,0,0,.42-9.57c-.16-2.63-.44-5.43-3.28-7.59-1.05,5.91-2,11.33-3,17.1a68.93,68.93,0,0,1-11-7.91c-3.31-2.77-2.82-6,1-8.06,2.79-1.49,5.88-1.72,8.92-2.2.85-.13,1.69-.4,1.93-1.29s-.4-1.55-1.08-2.06a8.09,8.09,0,0,0-9-.85c-2.51,1.41-3.56.44-4.54-1.35-4.6-8.32-12.27-11.15-21-10.95a20,20,0,0,1-13.53-4.78c-11.38-8.94-21.05-20.05-34.38-26.53-5.79-2.82-9.57-8.44-14.69-12.24-10.78-8-21.49-16-31.12-25.42-1.3-1.27-1.7-2-.41-3.67,8.45-11.06,12.44-23.77,13-37.56a59.78,59.78,0,0,0-7.07-31.5c-.4-.72-1.53-1.56.21-2.28,2.58-1.07,3.68-3.09,3.51-5.91-.07-1.1.74-2.52,1.78-1.63,2.58,2.23,4,.12,5.36-1.21,9.76-9.32,21.21-16.68,30.33-26.82a71.49,71.49,0,0,1,17.51-14.32h0a3.45,3.45,0,0,0,2-2.88.91.91,0,0,1-.59-.13s0,0,0,0l-.15-.05h0a6.3,6.3,0,0,1,1.89-5.57,76.05,76.05,0,0,1,13.88-12.2c1.3-.85,2.63-1.75,4.08-.23l3.17.05c.44-.43.91-.83,1.32-1.29,4.55-5.13,4.18-7.21-2-10.09-1.5-.71-1.73-1.7-1.13-3,2.13-4.47,4.46-8.84,7.93-12.46,2.49-2.59,3.77-2.48,5.83.51,1.51,2.2,2.45,4.77,4.29,6.77,5.46,5.94,11.79,10.94,17.71,16.38.26.23.6.62,1.13.19a10.8,10.8,0,0,0-1.88-3.72,159.83,159.83,0,0,0-11.33-15.07c-1.61-1.93-4.82-4-4-6s4.53-1.67,7-2.18c14.46-2.94,27.66-16.3,20.82-34.5-2.18-5.79-5-10.8-11.41-13.29-11.4-4.44-21.18-1.44-30.22,5.62-5.41,4.21-8.16,10.18-10.6,17.33a22.36,22.36,0,0,0,5.53-5.36A34.38,34.38,0,0,1,378.78,74c7.69-1,15.26,2.9,19.51,10.82,4,7.53,3.13,13.88-2.47,20.09-6.4,7.1-14.76,8.89-23.72,9.37a12.7,12.7,0,0,1-10.57-4.08,9.51,9.51,0,0,0-4.71-3.12c.75,2.48,2.73,3.61,3.91,5.31.73,1,2.42,2.68.32,3.54-4.85,2-7,6.14-9.23,10.32-.82,1.53-1.13,3.42-2.94,4.68.43-4.3,1.1-8.29,1.19-12.3.18-8-1.89-15.37-8.31-20.75a87.26,87.26,0,0,0-14.44-10c-3.08-1.66-6.26-3.14-9.84-3.36-12.57-.76-25.17,12.85-24,25.89.18,1.92,1.63,4.16.48,5.62s-3.46,2-5.31,2.87c-4.78,2.18-7,5.88-6.74,11.09a16,16,0,0,1-.41,5.34c-3.29-.72-5.52-2.35-6.27-5.85a18.51,18.51,0,0,1-.07-7.34c.76-4.14,2-8.15,2.23-12.43s-2.29-6.76-5.16-9.27c-2.39-2.08-4.46-.08-6.66.15a9.66,9.66,0,0,0-1.78.5c-1.27.41-1.95.35-1.62-1.35.41-2.12.6-4.29.82-6.44.09-.82,0-1.84-1-2s-1.34.68-1.49,1.56a22.38,22.38,0,0,1-9,15,24.79,24.79,0,0,1-11.15,5.31,73.89,73.89,0,0,1-12.05.89,54.89,54.89,0,0,1-53-37.5C171,63.85,171.19,51.11,174,38.29A39.82,39.82,0,0,1,189.8,14c6.42-4.68,13.89-6.59,21.66-7.46,11.23-1.26,22.28-.59,32.9,3.61,5.71,2.25,10.56,5.59,12.88,11.63a27.19,27.19,0,0,1,1.61,9.68c0,.86,0,2.07,1.31,2.06,1.15,0,1-1.16,1.09-1.91.18-1.33.25-2.68.33-4,.36-5.36,0-10.74.63-16.1.83-6.74.72-6.75-6-7.79-.3,0-.59-.17-.9-.21-14.6-2.24-29.17-4.61-44-2.81C198.44,2.19,186.68,6.21,177,15.15c-21.17,19.44-24.28,53.57-10.3,76.92,1.73,2.88,4,5.37,5.86,8.38-1.78.2-3.09-.51-4.46-.84-.81-.2-1.74-.6-2.4-.07-3,2.45-6.34,4.54-6.33,9.27s1.54,9.12,2.3,13.67c1,5.77-.19,12.15-6.61,12.57a20.8,20.8,0,0,1-.23-3.68c.69-6.72-2.28-11.05-8.47-13.39-.76-.29-1.43-.84-2.2-1.06-1.47-.42-2-1.2-1.55-2.73,2.25-8.28-.86-15.06-5.88-21.44-6.74-8.55-15.34-10.65-25.22-6-5.16,2.44-9.58,6-14.2,9.21-8.38,5.89-11.13,14.18-10.52,23.94.22,3.58.67,7.15,1,10.72A27.9,27.9,0,0,1,84.23,125c-1.73-3.32-3.69-6.48-7-8.4-2.89-1.65-3-2.25-.76-4.83,1.21-1.38,2.82-2.5,3.45-4.7a10.39,10.39,0,0,0-5.05,3.42c-1.94,2-4.25,3.57-7,3.63-10.49.25-20.38-1.32-27.7-10-3.54-4.22-5.07-8.7-3.69-14.22C39,79.72,48.14,72.63,57.4,73.94c8.82,1.25,16.66,4.26,22.38,11.64,2.11,2.71,4.17,5.64,7.51,7.71a9.89,9.89,0,0,0-.22-1.44C83.12,80,75.15,72.39,63,69.23c-9.64-2.52-21,1.7-25.27,9.59C27.39,98,37.62,112.55,53.09,117.69a65.09,65.09,0,0,0,8.1,1.84c2.59.51,3,1.4,1.17,3.5A181.4,181.4,0,0,0,50.6,137.78c-1.71,2.48-3.63,4.86-4.72,7.93a4.4,4.4,0,0,0,2.82-1.64c7-7.21,15.94-12.53,20.61-22,1.54-3.1,3.14-3,5.54-.57,3.5,3.59,5.83,8,8,12.42.82,1.68.22,2.62-1.46,3.29-5.54,2.2-6.08,4.45-2.3,9.09q.69.84,1.44,1.62c1,1,1,1.83-.27,2.75-4.36,3.31-11.88,1.43-14.13-3.47-1.27-2.79-1.3-6-3.05-8.74-4.85,4.43-10.37,7.65-15.73,11.08-.91.58-2.06,1.79-3,1.2-1.56-1-1.73.14-2.22.95-2.29,3.78-4.84,7.43-6.81,11.38-10.09,20.19-16.53,41.72-23,63.24a50,50,0,0,0-2.44,11.31,3.21,3.21,0,0,0,2.5-.48c1-.48,2.1-1.39,3.12-.4s.49,2.24.12,3.46a6.5,6.5,0,0,1-1.73,2.85c-1.07,1-2.24,1.63-3.29-.1s-1.95-.67-2.38.39A30.71,30.71,0,0,0,6.1,254.19c-.06,1.91.77,1.83,2.05.94.71-.5,1.45-1.95,2.1-1.36a4.44,4.44,0,0,1,1,4.86c-.63,1.71-2,1.69-3.59,1.09-.77-.29-.72-1.51-2-1.38-.28,1.05-.59,2.12-.85,3.2-2.2,9.27-3,18.74-3.64,28.21a471.81,471.81,0,0,0-.66,59.81c.49,8.34.94,16.71,3.12,24.83.58,2.17,1.09,4.53,3.22,6a7.82,7.82,0,0,0,1-4.32c-.29-19,.22-38,2.58-56.93v0c.08-.71.8-1.62-.56-1.91h0c-1.46,5.46-1.56,11.31-4.39,16.93a6.65,6.65,0,0,1-.9-4.88c1.64-15.58,5-30.84,8.6-46A48.78,48.78,0,0,1,16,274.14c.34-.75.88-1.56,1.75-1.6,1.19-.05.71,1,.77,1.62s.18,1.11.74,1.22a1.72,1.72,0,0,0,1.79-1A31.51,31.51,0,0,0,25.32,260c-3.5,1.22-6.63,2.21-9.67,3.43-2.52,1-3.15.06-3-2.29.43-6.33,4.34-10.83,10.49-12a15.5,15.5,0,0,0,1.83-.24c3.37-1.12,7.45-.94,10-3.41,3.45-3.32,5.34-7.87,7.27-12.3a1.75,1.75,0,0,0-1.92.42c-6,3.64-11.82,7.37-18.78,9-2.25.53-2.82.23-2.51-2a14.17,14.17,0,0,1,7.39-11.05,102.5,102.5,0,0,0,14.92-9.83c1.62-1.32,3.53-2.48,4-4.82-1.75-.5-3.12.47-4.6.79-3.13.68-5.15-.92-4.14-4,2.42-7.27,3.64-15,7.45-21.73,4.59-8.12,10.62-14.93,19.12-19.18,1.72-.86,3.89-2.22,5.52-1.1,2.44,1.69,4.19.69,6.21-.33a14.58,14.58,0,0,1,4.41-1.25c6.93-1.17,13.81.14,20.71.3,5.84.14,10.31,3.7,14,7.12,4.45,4.19,9.14,8.23,13.37,12.75,8.25,8.82,18.56,15.42,27.44,23.62.85.78,1.8,1.54,3.16.19s2.15-.33,2.39,1.23c.89,5.67,2.3,6.74,7.85,6a1.68,1.68,0,0,1-.11.55c-.44.81-.93,1.59-1.37,2.39-12.67,23.46-11.44,46.32,3,68.55,1,1.54,1.12,2.21-.26,3.6-13.15,13.2-29.21,22.88-42.8,35.56-4.76,4.44-11.21,6.42-16.31,10.43-7.38,5.82-13.86,12.67-21.35,18.38-3.91,3-7.84,4.85-13,4.51a23.46,23.46,0,0,0-15.2,4.17A19.69,19.69,0,0,0,55,374.08c-1,1.83-2.11,3.05-4.74,1.51A7.87,7.87,0,0,0,42,376c-1,.59-2.14,1.23-1.76,2.57.33,1.14,1.53,1.12,2.58,1.3,3,.53,6.13.78,8.84,2.44s3.53,4.6,1.67,6.5a61.29,61.29,0,0,1-12.1,9.11c-1.6-5.7-1.67-11.36-3.44-17.05-2.61,2.57-2.91,5.44-3.09,8.31a56.61,56.61,0,0,0,.58,10.48,6,6,0,0,1-3.32,6.16c-2.34,1.35-3.91-.4-5.45-1.68a81.37,81.37,0,0,0-9.34-7.09c-2.72-1.66-5.69-2.36-8.45-.56-4,2.62-7.63,5.75-7.47,11.27.09,3.1.12,6.2.2,9.3A55.7,55.7,0,0,1,.46,430c-.88,4.18-.45,5.14,3.15,7.34,3.8,2.34,4.39,2,5.1-2.49a13.79,13.79,0,0,0,0-5.24c-.31-1.38-.35-2.87.75-3.73s2.39,0,3.47.58a47.9,47.9,0,0,1,4.56,2.61c3.88,2.53,7.63,5.26,11.58,7.68,6.13,3.75,10.14,3.06,15-2.18a8.2,8.2,0,0,0,2.25-5.29c.14-3,1.41-3.42,3.91-2.22,1.56.74,3.23,1.61,5,1,4.46-1.58,8.09-4.16,9.64-8.88s1-9.76.36-14.7c-.37-2.81-1.75-5.74-.54-8.48,1.55-3.51,7.83-6,11.55-4.75a6.41,6.41,0,0,0,6.08-.92,14.84,14.84,0,0,0,6.67-12.58,8.4,8.4,0,0,1,3-6.8,5.34,5.34,0,0,0,2.19-5.13c-.1-.66-.28-1.51.5-2,.93-.54,1.49.29,2.17.7s1.48,1.86,2.58,1.09c1.43-1,2.5-2.5,3.94-3.45,2.16-1.43.71-3.09.26-4.8,3.13,1.15,3.14,1.14,5.59-.6,10.48-7.46,20.63-15.34,31.5-22.27,13.39-8.55,23.37-21.1,35.28-31.41,1.53-1.32,2.65-2.47,4.66-.87,8.73,6.94,18.84,10.33,29.81,11.42,16.29,1.62,31.36-1.67,44.67-11.5,2-1.48,3.49-1.19,4.76.37,2.57,3.17,5.78,5.59,8.87,8.15,5,4.17,9.14,9.27,14,13.62C289,329.88,295.93,334.48,303,339c8.29,5.35,16,11.56,24,17.41,1.69,1.25,3.31,2.59,6.33.52-2.71,4.33.65,5.23,2.13,7.08s2.7,2.37,4.44.48c.47-.51,1.08-1.08,1.89-.77,1,.4.81,1.4.7,2.15a5.05,5.05,0,0,0,2,4.9,8.21,8.21,0,0,1,3.14,7,15.57,15.57,0,0,0,.61,4.27c1.76,6.86,7.35,10.28,14,8.63,4.43-1.09,10.52,4.45,9.9,8.94-.79,5.6-2,11.16-1.1,16.9,1.28,8.16,8.7,12.95,16.34,10.18,2.08-.76,2.66,0,2.85,1.69a10.18,10.18,0,0,0,2.2,6c4.94,5.54,9.23,6.11,15.77,2,5.14-3.23,9.89-7.08,15.33-9.84,1.16-.59,2.53-1.59,3.74-.64s1,2.38.67,3.75c-.59,2.39,0,4.74.39,7.06.12.73.14,1.92,1.47,2C432.7,439.08,437.25,434.34,436.55,431.44ZM25.72,411.16A72.62,72.62,0,0,1,18.25,419c-.22.2-.5.53-.73.51-3.37-.28-6.21-2.37-9.67-2.71-1.7-.17-1.68-2.78-2-4.49-.69-3.52-.21-7,.22-10.48.17-1.38.69-2.39,2.38-2.27.89.23,1.8.41,2.66.71a53.5,53.5,0,0,1,14.19,7.93C26.54,409.12,26.74,409.9,25.72,411.16Zm11.57,23A36.89,36.89,0,0,1,29,429.52c-1.83-1.3-1.59-2.84-.39-4.23a23.1,23.1,0,0,1,7.06-5.41c1.95-1,3.14-.15,3.81,1.69,1.14,3.12,1.37,6.43,2,9.6C41.46,434.14,40,435.25,37.29,434.21Zm19.84-10.66c-6,.89-12.84-5.53-12.35-11.54a4,4,0,0,1,2.52-3.83c2.46-1.08,4.27-3.17,6.4-4.77,2.77-2.08,4.11-1.61,5.17,1.68A29.4,29.4,0,0,1,60,409.87c.44,3.16.72,6.33,1.07,9.5C61.25,422.19,59.52,423.2,57.13,423.55Zm17.56-52.73a46.68,46.68,0,0,1-10.59,8.39c-2.55,1.43-3.51.77-3.51-2.5a4.92,4.92,0,0,1,2.65-4.58,26.57,26.57,0,0,1,10.48-3.26c.6-.07,1.34-.19,1.68.43S75.07,370.42,74.69,370.82Zm8.81,12.7c-.79,2.09-1.67,4.3-4,4.45-1.22,0-2,.06-2.44-.69s.17-1.4.57-1.89A33,33,0,0,1,81,381.77c.76-.69,1.6-2.17,2.69-1.4S83.87,382.56,83.5,383.52ZM342.91,114.88c.62.14.72.85.84,1.49a58,58,0,0,1,1.27,8.8c.08,2.39-.91,2.94-3,2.18-2.37-.87-4.74-1.76-7.45-2.77,2.46-3.09,4.67-5.9,6.9-8.68C341.86,115.44,342.25,114.72,342.91,114.88Zm-31.8-26.24a16.82,16.82,0,0,1,6.68-1.29c3.63-.26,7.13,1.31,10.25,3.52a49.16,49.16,0,0,1,11.25,11.37c2.28,3.14,2.4,6.18.11,9.33-1.46,2-3,3.94-4.27,6-3.57,5.73-9.51,6-15.28,7.26-7.93,1.73-14-1.8-20-5.81-2.44-1.63-2.88-4.42-3.12-7.11C295.94,103,302.71,92.12,311.11,88.64Zm-12.7,42.15c-1.34.16-1.28-.62-1.27-1.48,0-2.79,1.81-6,3.51-6a5.22,5.22,0,0,1,3.85,3.42C304.89,127.83,300.48,130.55,298.41,130.79ZM289,120.37c2.45-1.61,4.74-.47,5.1,2.43s-2.86,9.36-5.53,10.84c-1.54.85-2.51.68-2.69-1.32-.14-1.53-.38-3-.58-4.57A8.05,8.05,0,0,1,289,120.37Zm-48.82.11a37.4,37.4,0,0,1-16.35,13.45,14.07,14.07,0,0,1-11.3-.21c-9.08-3.75-14.65-11.14-20.12-18.84C207.72,121.05,223.66,121.82,240.13,120.48Zm-95.93-.43c1.79-1,3.34-.08,4.69,1.24a8.35,8.35,0,0,1,2.5,6.7,21.91,21.91,0,0,1-.38,3c-.27,1,.29,2.54-1.07,3s-2.45-.77-3.36-1.73a15.92,15.92,0,0,1-3.83-7.58C142.36,123,142.38,121,144.2,120.05ZM96.78,103.21A43.37,43.37,0,0,1,109.5,90.37c7.6-4.75,15-4,21.76,2A25.22,25.22,0,0,1,140,111.06c-.07,4-1.2,7.62-5.58,9.48a19.92,19.92,0,0,0-3.94,2.39c-4.35,3.16-9.19,1.88-14,1.84-10.28-.1-15.53-6.7-20-14.6A6.16,6.16,0,0,1,96.78,103.21Zm41.52,27.58c-2-.2-6.51-3-6.13-4a4.9,4.9,0,0,1,4-3.42c1.53-.18,3.29,3.06,3.35,5.9C139.54,130.12,139.66,130.93,138.3,130.79Zm-46.56-7.71c.27-1.53.73-4.25,1.23-7,.29-1.52,1-1.7,2-.49,2.06,2.55,4.07,5.14,6.16,7.67.9,1.1.32,1.56-.66,2-1.61.63-3.22,1.32-4.86,1.87C92.21,128.26,91.64,127.81,91.74,123.08Zm12,43.54C97.43,161,91,156.21,85.41,150.48c-.64-.65-1.56-1.51-.87-2.37a2.16,2.16,0,0,1,2.85-.13,48.85,48.85,0,0,1,7.86,5.94,82.7,82.7,0,0,1,7.45,7.41C103.84,162.72,104.7,164.19,103.7,166.62Zm59.92,37.67a6.41,6.41,0,0,1-5.38-3A108,108,0,0,0,143.4,182a52.32,52.32,0,0,0-16.34-11.35c-3.44-1.49-4.43-5-5-8.88,2.41.68,2.16,2.56,2.74,4,.33.8.6,2.18,1.66,1.94,1.38-.33.71-1.77.57-2.63a9.31,9.31,0,0,0-8-7.35c-3.62-.53-6-2.89-6.16-6.47a2.27,2.27,0,0,0-1.62-2.29,20.6,20.6,0,0,1-2.74-1.37c-3.22-1.86-3.34-3.52-.28-5.72,1.62-1.17,2.71-2.54,2.64-4.58a3.23,3.23,0,0,1,2.2-3.36c3.6-1.5,7.21-3.29,10.9-.1a2.3,2.3,0,0,0,1.75.25c6-1.33,11.66.43,17.29,2,4.25,1.18,4.63,2.18,3.49,6.55-2.57,9.77,2.29,19.25,12.17,23.07-.61-1.9-2-2.82-3-3.92-4.44-4.68-6.56-10.09-5.58-16.61.37-2.46,1.16-4,4-4.59,7.68-1.49,9.72-4.17,9.66-12.15,0-5.58-.33-11.15-.44-16.72a13.75,13.75,0,0,1,.41-3.37c1.18-5,4.74-6.93,9.51-5.24a21.84,21.84,0,0,1,9.82,7.29c4.37,5.48,8.53,11.12,12.83,16.75-1,1.13-2.49.83-3.63,1.48-2.55,1.43-3.19,3.47-1.58,5.89.74,1.11,1.72,2.07,2.55,3.12.49.61,1.32,1.15.8,2.12s-1.43.72-2.22.69c-1.85-.07-3.7-.34-5.55-.33-.88,0-2.09.29-1,1.66,2.62,3.42,9.67,3.08,12.07-.54,1.43-2.16,1.75-4.14-.53-6-1-.78-2.13-1.75-1.28-3.1s2.34-.85,3.66-.59a8.91,8.91,0,0,1,3.68,2.21c7.16,5.74,24.08,5.77,31.24-.06,1.42-1.16,2.93-2.34,4.92-2.42.93,0,1.93,0,2.42.92a1.9,1.9,0,0,1-.72,2.46c-2.3,1.78-3,3.74-1.28,6.38,2.06,3.11,3.88,4,7.58,2.92,1.87-.55,5-1,4.7-3.07-.27-1.84-3.16-.55-4.91-.54-.72,0-1.44.1-2.16.08s-1.5.08-1.88-.76.3-1.32.69-1.89a2.29,2.29,0,0,1,.21-.23c5-6.35,4.83-7.2-2.67-10.33,2.9-4.22,5.53-8.36,11.57-8.77,4.4-.29,7.34-3,7.7-7.78.09-1.22.8-2.41.78-3.6-.06-2.71,1.38-3.88,3.76-4.4,2.63-.57,4.89-.13,6.61,2.1,2.33,3,2.28,6.52,2.08,10.06-.34,6.07-.94,12.13.09,18.22.73,4.3,3.38,6.41,7.36,7.26,5.48,1.16,5.48,1.14,6,6.75.49,5.86-1.89,10.58-5.76,14.74-1,1.11-2.44,1.93-2.86,3.58,8.27-2,14.53-12.58,12.42-21-1.66-6.65-1.25-7.48,5.49-9,4.89-1.11,9.78-2.65,14.92-1.32a2.26,2.26,0,0,0,1.74-.26c4-3.3,7.72-1.28,11.45.42a2.72,2.72,0,0,1,1.62,2.76c-.14,2.31,1.12,3.78,2.92,5.07,2.74,2,2.6,3.57-.33,5.34-1,.63-2.16,1.15-3.27,1.68a2.11,2.11,0,0,0-1.31,1.87c-.53,4.36-2.55,6.32-6.81,6.77-3.49.37-7.21,4.31-7.41,8,0,.7-.57,1.84.66,2,.83.13,1.06-.82,1.39-1.44.77-1.45.46-3.5,2.36-4.47.55,2.93-1.62,7.89-4.1,8.84-9.81,3.76-16.75,11-23.22,18.82-3.08,3.75-5.56,7.91-8.26,11.91a6.75,6.75,0,0,1-5.4,3c-4,.43-8.06.19-11.89,1.66a2.5,2.5,0,0,1-2.56-.58,61.37,61.37,0,0,0-26.37-11.16c-.36-.8.31-1.2.47-1.75.5-1.86,1.12-3.45,3.21-1.14a1.78,1.78,0,0,0,2.23.52,1.84,1.84,0,0,0,.64-2.23c-.47-2-.73-4.25-3.62-4.08-.76.05-1.25-.15-1.26-.92,0-3.81-1.42-7.2-3.11-10.53a41.64,41.64,0,0,0-6.62-9.18c11.55,1.4,22.66-.21,33.36,3.45,3.06,1,6.51,1.77,10.47-.25a34.27,34.27,0,0,0-3.38-.91c-5.39-.8-5.63-1.26-2.77-5.7a6.64,6.64,0,0,0,.31-7.31c-1.68-2.94-8.25-4.53-11.22-2.87-.46.25-1,.41-.86,1.07s.61.8,1.12,1c1.84.6,3.75,1.08,5.53,1.84,1.54.66,3.67,1.22,3.29,3.46s-2.25,3.09-4.3,3.38c-3.41.48-5.73-.92-7-4.23-.45-1.19-.71-2.55-2.41-2.11s-2,1.82-1.91,3.42,2.26,3.4.53,4.57c-.91.61-3.06-.65-4.66-1-7-1.54-14-2.81-21.12-1.16-2.29.53-4.43-.7-6.71-.78-6.69-.22-13.13,1.14-19.51,2.84-2,.53-2.22.08-1.57-1.66a16.34,16.34,0,0,0,.86-3.28,2.46,2.46,0,0,0-2.05-3c-1.46-.29-1.8.93-2.22,2-1.71,4.43-6.17,5.92-9.68,3.3-2.35-1.76-2.3-3.53.17-5.06,2.12-1.31,4.62-1.64,6.91-2.5.59-.22,1.21-.42,1.25-1.17,0-.47-.34-.71-.75-.85a11.15,11.15,0,0,0-9.26.79,5.94,5.94,0,0,0-3,6,7.49,7.49,0,0,0,1.48,3.67c2.51,3.67,2,4.76-2.31,5.24a6.19,6.19,0,0,0-3.83,1.27c4.41,1.86,8.44.71,12.17-.41a63,63,0,0,1,19.24-2.29c3.8.05,7.6-.41,11.94-.68-3.87,4.4-6.92,8.8-8.56,14a16.4,16.4,0,0,0-.85,3.27c-.15,1.84.18,3.65-2.8,3.47-1.43-.09-3,4.29-2.1,5.52,1.25,1.7,2.33.2,3.41-.4.5-.27,1.08-1.26,1.45-.73a12.21,12.21,0,0,1,1.73,3.88c.15.56-.86.71-1.45.85a55.54,55.54,0,0,0-22.78,11.19,2.56,2.56,0,0,1-2.83.53C173.11,204.65,168.31,204.74,163.62,204.29Zm36.62,24.84a37,37,0,0,0,15.63-.63,6.08,6.08,0,0,1,3-.36c8.07,2.59,16.12,1.31,24.19.1a16.28,16.28,0,0,1,1.85-.15c.18,0,.36.13,1,.38-1.37,1.41-2.58,2.73-3.88,4q-10.81,10.19-21.67,20.32c-1.1,1-2.05,1.95-3.61.49-8.65-8.11-17.49-16-26.33-25C194.25,227.92,197.26,228.64,200.24,229.13Zm-3.5-5.29c1.6-.51,2.64-.68,3.6.22,1.42.09,2.95-.38,4.56,1l-4.48-.47Zm9,1.08c1.71-.45,2.7.49,3.83.75A3.59,3.59,0,0,1,205.77,224.92Zm20.46.64c1.73-.12,2.65-.94,4.29-.49C229,226.19,228,226,226.23,225.56Zm4.92-.29c1.94-1.47,3.6-1.18,5.19-1.21.91-1,2-.6,4-.37l-4.05.92h-.05Zm6.07-5a134.83,134.83,0,0,0-16.91,3.47,7.38,7.38,0,0,1-3.93,0c-9.38-2.49-18.86-4.37-28.62-4.47-2.31,0-3.56-1.89-5.23-3-.88-.59-.14-1.21.24-1.8.56-.88,1.23-1.39,2.31-.92,1.78.78,3.53,1.65,5.34,2.34,5.58,2.14,11,1.2,16.46-.73-6.9-.48-13.36-2.55-19.92-4.94,1.36-2.32,2.86-3.21,5.72-2.35a72.6,72.6,0,0,0,16.48,2.52c.68.05,1.89.58,2-.65.09-.83-.79-1.46-1.6-1.7-3.65-1.08-7.31-2.11-11-3.13a19.06,19.06,0,0,1-3.34-1c5.56-2.2,10.57-6.27,17.35-3.59a14.27,14.27,0,0,0,10.33.15c4.18-1.65,7.76-.44,11.44,1.17,1.77.78,3.5,1.63,6.08,2.84a101,101,0,0,0-13.09,3.5c-.92.33-2,.89-1.87,1.8.18,1.32,1.56.73,2.31.64a125,125,0,0,0,14.38-2c2.93-.69,4.43.3,6,2.48-6.26,2.06-12.38,4.11-19,4.16,6.6,2.58,13.18,3.06,19.77-.19,1-.5,2.22-1.51,3.24.05.42.64,1.51,1.34.87,2.08-1.06,1.21-2.32,2.35-4.16,2.35A97.87,97.87,0,0,0,237.22,220.27Zm-19.5-53.78a2.91,2.91,0,0,1,2.28.58,27.64,27.64,0,0,1,10.41,9.46c3,4.27.6,13.73-4,16.23-2.41,1.3-5.27,0-7.92.35-1.13,0-2.27,0-3.4,0-5.68.25-9.32-3-9.77-8.73C204.74,177.4,211.13,168.26,217.72,166.49Zm-36.84,116.9a75.67,75.67,0,0,1-8-36.34,73.23,73.23,0,0,1,2-16.94c.18-.7.14-1.51,1.06-1.93.57.48,1.16.93,1.7,1.45A130,130,0,0,1,190.32,243c5.55,7,13,11.87,19.48,17.86,1.67,1.54,2.2,2.28.18,4.06a295.64,295.64,0,0,1-24.84,19.52C182.88,286,182,285.48,180.88,283.39Zm71,16.53A43.13,43.13,0,0,1,224,309.83c-12.35-.07-23-4.38-32.32-12.45-1.68-1.46-1.42-2.15.17-3.26,5.73-4,11.45-7.94,17.07-12.06a68.38,68.38,0,0,0,10-9.64c.79-.88,1.43-1.63,2.51-.31,8.39,10.25,20.15,16.29,30.39,24.22C253.84,297.91,253.67,298.48,251.92,299.92Zm7.1-14.79c-.85,1.82-1.35,2.4-3.36,1.05a243.27,243.27,0,0,1-27.6-21.31c-1.62-1.45-1.47-2.19.09-3.45,3.36-2.71,6.54-5.66,9.91-8.38,7.68-6.2,13.15-14.52,20.39-21.15,1.88-1.71,2.45-1.77,3.19.74a86.21,86.21,0,0,1,3.3,23.1C264.79,265.5,263.46,275.61,259,285.13ZM359.54,387.34c-.51.73-1.26.61-2,.6-2.91,0-5.24-4.16-4.48-8,2.61,1.21,4.24,3.45,6,5.54C359.45,385.93,360.15,386.5,359.54,387.34Zm13.06-8.12a46.91,46.91,0,0,1-10.6-8.38c-.39-.4-1.09-.83-.73-1.52s1.08-.52,1.67-.46a26.9,26.9,0,0,1,10.48,3.26,4.84,4.84,0,0,1,2.66,4.46C376.1,380,375.15,380.64,372.6,379.22Zm17.46,39.5a14.6,14.6,0,0,1-9.32,4.89c-3.35.32-5.16-1.43-5.07-4.58a72,72,0,0,1,2.14-14c.91-3.09,2.28-3.61,4.91-1.75s4.9,4,7.72,5.55C392.72,410.11,392.52,416.1,390.06,418.72Zm17.28,11a38.18,38.18,0,0,1-7.75,4.37c-3,1.14-4.42.15-4.37-3,.58-3.13.82-6.34,1.87-9.37.76-2.16,2.06-3,4.24-1.73a26.16,26.16,0,0,1,6.35,4.85C409.29,426.62,409.58,428.24,407.34,429.75Zm22.16-17.46c-.34,1.71-.32,4.32-2,4.49-3.46.34-6.3,2.43-9.67,2.71-.23,0-.51-.31-.73-.51a72.62,72.62,0,0,1-7.47-7.82c-1-1.26-.82-2,.44-3a53.5,53.5,0,0,1,14.19-7.93c.86-.3,1.77-.48,2.66-.71,1.69-.12,2.21.89,2.38,2.27C429.71,405.29,430.19,408.77,429.5,412.29Z"/></g></svg>